<svg width="186" height="30" viewBox="0 0 186 30" fill="none" xmlns="http://www.w3.org/2000/svg">
<path d="M177.06 11.9703L185.798 21.7623H182.84L175.564 13.4663C174.782 14.2483 174.34 15.3023 174.34 16.4243V21.7623H172.266V0.0703125H174.34V13.5343L180.562 7.31231H179.236V6.46231H184.064V7.31231C182.568 7.31231 181.174 7.89031 180.12 8.94431L177.06 11.9703Z" fill="#4B54E9"/>
<path d="M166.613 7.24309C168.891 8.60309 170.421 11.0851 170.421 13.9411C170.421 18.2591 166.919 21.7611 162.601 21.7611C161.411 21.7611 160.289 21.5231 159.303 21.0471C159.133 20.9791 158.963 20.8771 158.793 20.8091C158.691 20.7411 158.589 20.6731 158.487 20.6051C158.317 20.5031 158.181 20.4011 158.045 20.2991C156.039 18.9051 154.781 16.5591 154.781 13.9411C154.781 9.62309 158.283 6.12109 162.601 6.12109C163.995 6.12109 165.321 6.49509 166.477 7.17509H166.511C166.545 7.17509 166.579 7.20909 166.613 7.24309ZM167.157 16.5931C169.027 13.3631 168.551 9.62309 166.137 8.12709C166.069 8.05909 166.001 8.02509 165.899 7.99109L165.525 7.78709C164.981 7.58309 164.437 7.48109 163.859 7.48109C163.213 7.48109 162.533 7.61709 161.853 7.88909C160.289 8.50109 158.963 9.72509 158.045 11.3231C156.175 14.5191 156.651 18.2931 159.065 19.7891C159.099 19.8231 159.133 19.8231 159.201 19.8571C159.337 19.9591 159.507 20.0271 159.677 20.1291C160.765 20.5711 162.057 20.5371 163.349 20.0271C164.879 19.4151 166.239 18.1911 167.157 16.5931Z" fill="#4B54E9"/>
<path d="M150.583 16.6938C150.787 16.3198 150.957 15.9458 151.127 15.5718H153.643C152.963 19.1078 149.835 21.7598 146.095 21.7598C144.939 21.7598 143.851 21.5218 142.865 21.0458C142.729 20.9778 142.559 20.9098 142.389 20.8078C142.287 20.7738 142.185 20.7058 142.083 20.6038C141.913 20.5358 141.777 20.4338 141.641 20.3318C139.703 18.9378 138.445 16.6598 138.445 14.1098C138.445 9.85978 141.879 6.42578 146.095 6.42578C147.489 6.42578 148.781 6.79978 149.903 7.44578C149.903 7.44578 149.937 7.44578 149.937 7.47978C149.971 7.47978 150.005 7.51378 150.039 7.51378C151.977 8.66978 153.337 10.6758 153.677 12.9878H140.961C140.009 15.7418 140.655 18.5638 142.661 19.8218C142.695 19.8558 142.729 19.8898 142.763 19.8898C142.933 19.9918 143.069 20.0598 143.239 20.1618C144.327 20.6038 145.585 20.5698 146.843 20.0598C148.339 19.4478 149.665 18.2578 150.583 16.6938ZM141.641 11.5258C141.505 11.7298 141.403 11.9338 141.301 12.1378H151.637C151.501 10.5398 150.787 9.17978 149.563 8.39778C149.529 8.36378 149.495 8.32978 149.461 8.32978C149.393 8.29578 149.393 8.29578 149.359 8.26178L148.951 8.05778C148.441 7.85378 147.897 7.75178 147.353 7.75178C146.707 7.75178 146.027 7.88778 145.347 8.15978C143.851 8.77178 142.525 9.96178 141.641 11.5258Z" fill="#4B54E9"/>
<path d="M137.111 6.08594H138.641L129.869 29.0359H128.611L131.025 22.6099L124.055 6.08594H126.571L132.045 19.8899L137.111 6.08594Z" fill="#4B54E9"/>
<path d="M120.538 0.0703125H122.646V21.7963H120.538V11.3583H108.332V21.7963H106.258V0.0703125H108.332V10.4743H120.538V0.0703125Z" fill="#4B54E9"/>
<path d="M91.7939 21.7627H89.7539V6.05469H91.8619V8.70669C91.8619 8.70669 93.7659 6.36069 96.9279 6.36069C100.09 6.36069 103.864 9.42069 103.864 13.2967C103.864 17.1387 104 21.7627 104 21.7627H101.96C101.96 21.7627 101.96 18.2947 101.96 14.5207C101.96 10.7807 100.158 7.41469 96.8599 7.41469C93.5619 7.41469 91.7939 10.4407 91.7939 14.7927C91.7939 19.1447 91.7939 21.7627 91.7939 21.7627Z" fill="#4B54E9"/>
<path d="M87.1808 21.7629H85.0728V6.05488H87.1808V21.7629ZM86.1268 3.23287C85.3788 3.23287 84.8008 2.62087 84.8008 1.87287C84.8008 1.15888 85.3788 0.546875 86.1268 0.546875C86.8748 0.546875 87.4868 1.15888 87.4868 1.87287C87.4868 2.62087 86.8748 3.23287 86.1268 3.23287Z" fill="#4B54E9"/>
<path d="M79.9412 0.0680012L83.4432 21.76H80.2812L78.6152 0.782L72.6652 21.76H70.5572L64.4712 0.782L62.9412 21.76H59.9492L63.4512 0.0680012L65.7292 0L71.6792 19.584L77.6972 0L79.9412 0.0680012Z" fill="#4B54E9"/>
<path d="M41.2286 6.35953C45.7166 6.35953 47.6546 10.5415 47.6546 14.4855C47.6546 17.4775 47.6546 21.7615 47.6546 21.7615H45.8526C45.8526 21.7615 45.8866 17.5795 45.8866 14.8255C45.8866 12.0715 45.0026 7.41353 41.1606 7.41353C37.2846 7.41353 36.4346 12.1055 36.4346 14.6555C36.4346 17.2055 36.4686 21.7615 36.4686 21.7615H34.6326C34.6326 21.7615 34.6326 17.5795 34.6326 14.8255C34.6326 14.4515 34.6326 14.0435 34.5646 13.6355C34.3606 10.9155 33.2726 7.41353 29.9066 7.41353C26.2686 7.41353 25.3506 11.5615 25.2486 14.1455C25.2146 14.3495 25.2146 14.4855 25.2146 14.6555C25.2146 17.2055 25.2486 21.7615 25.2486 21.7615H23.1406V6.01953H25.2486V8.67153C26.2686 7.34553 27.7986 6.35953 29.9746 6.35953C32.7966 6.35953 34.5986 7.95753 35.5506 10.1675C36.5366 8.16153 38.3046 6.35953 41.2286 6.35953Z" fill="#4B54E9"/>
<path d="M20.5636 21.7629H18.4556V6.05488H20.5636V21.7629ZM19.5096 3.23287C18.7616 3.23287 18.1836 2.62087 18.1836 1.87287C18.1836 1.15888 18.7616 0.546875 19.5096 0.546875C20.2576 0.546875 20.8696 1.15888 20.8696 1.87287C20.8696 2.62087 20.2576 3.23287 19.5096 3.23287Z" fill="#4B54E9"/>
<path d="M17.306 0.886312C15.81 0.886312 14.756 1.63431 13.736 2.65431L6.664 10.1003L17.306 21.7963H13.566L5.168 11.5963C3.196 13.5683 2.074 16.2883 2.074 19.0763V21.7623H0V0.0703125H2.074V13.2623L13.77 0.886312H12.478V0.0703125H17.306V0.886312Z" fill="#4B54E9"/>
</svg>
