<svg width="175" height="30" viewBox="0 0 175 30" fill="none" xmlns="http://www.w3.org/2000/svg">
<path d="M166.06 11.9703L174.798 21.7623H171.84L164.564 13.4663C163.782 14.2483 163.34 15.3023 163.34 16.4243V21.7623H161.266V0.0703125H163.34V13.5343L169.562 7.31231H168.236V6.46231H173.064V7.31231C171.568 7.31231 170.174 7.89031 169.12 8.94431L166.06 11.9703Z" fill="#4B54E9"/>
<path d="M155.613 7.24309C157.891 8.60309 159.421 11.0851 159.421 13.9411C159.421 18.2591 155.919 21.7611 151.601 21.7611C150.411 21.7611 149.289 21.5231 148.303 21.0471C148.133 20.9791 147.963 20.8771 147.793 20.8091C147.691 20.7411 147.589 20.6731 147.487 20.6051C147.317 20.5031 147.181 20.4011 147.045 20.2991C145.039 18.9051 143.781 16.5591 143.781 13.9411C143.781 9.62309 147.283 6.12109 151.601 6.12109C152.995 6.12109 154.321 6.49509 155.477 7.17509H155.511C155.545 7.17509 155.579 7.20909 155.613 7.24309ZM156.157 16.5931C158.027 13.3631 157.551 9.62309 155.137 8.12709C155.069 8.05909 155.001 8.02509 154.899 7.99109L154.525 7.78709C153.981 7.58309 153.437 7.48109 152.859 7.48109C152.213 7.48109 151.533 7.61709 150.853 7.88909C149.289 8.50109 147.963 9.72509 147.045 11.3231C145.175 14.5191 145.651 18.2931 148.065 19.7891C148.099 19.8231 148.133 19.8231 148.201 19.8571C148.337 19.9591 148.507 20.0271 148.677 20.1291C149.765 20.5711 151.057 20.5371 152.349 20.0271C153.879 19.4151 155.239 18.1911 156.157 16.5931Z" fill="#4B54E9"/>
<path d="M139.583 16.6938C139.787 16.3198 139.957 15.9458 140.127 15.5718H142.643C141.963 19.1078 138.835 21.7598 135.095 21.7598C133.939 21.7598 132.851 21.5218 131.865 21.0458C131.729 20.9778 131.559 20.9098 131.389 20.8078C131.287 20.7738 131.185 20.7058 131.083 20.6038C130.913 20.5358 130.777 20.4338 130.641 20.3318C128.703 18.9378 127.445 16.6598 127.445 14.1098C127.445 9.85978 130.879 6.42578 135.095 6.42578C136.489 6.42578 137.781 6.79978 138.903 7.44578C138.903 7.44578 138.937 7.44578 138.937 7.47978C138.971 7.47978 139.005 7.51378 139.039 7.51378C140.977 8.66978 142.337 10.6758 142.677 12.9878H129.961C129.009 15.7418 129.655 18.5638 131.661 19.8218C131.695 19.8558 131.729 19.8898 131.763 19.8898C131.933 19.9918 132.069 20.0598 132.239 20.1618C133.327 20.6038 134.585 20.5698 135.843 20.0598C137.339 19.4478 138.665 18.2578 139.583 16.6938ZM130.641 11.5258C130.505 11.7298 130.403 11.9338 130.301 12.1378H140.637C140.501 10.5398 139.787 9.17978 138.563 8.39778C138.529 8.36378 138.495 8.32978 138.461 8.32978C138.393 8.29578 138.393 8.29578 138.359 8.26178L137.951 8.05778C137.441 7.85378 136.897 7.75178 136.353 7.75178C135.707 7.75178 135.027 7.88778 134.347 8.15978C132.851 8.77178 131.525 9.96178 130.641 11.5258Z" fill="#4B54E9"/>
<path d="M126.111 6.08594H127.641L118.869 29.0359H117.611L120.025 22.6099L113.055 6.08594H115.571L121.045 19.8899L126.111 6.08594Z" fill="#4B54E9"/>
<path d="M109.538 0.0703125H111.646V21.7963H109.538V11.3583H97.3318V21.7963H95.2578V0.0703125H97.3318V10.4743H109.538V0.0703125Z" fill="#4B54E9"/>
<path d="M80.7939 21.7627H78.7539V6.05469H80.8619V8.70669C80.8619 8.70669 82.7659 6.36069 85.9279 6.36069C89.0899 6.36069 92.8639 9.42069 92.8639 13.2967C92.8639 17.1387 92.9999 21.7627 92.9999 21.7627H90.9599C90.9599 21.7627 90.9599 18.2947 90.9599 14.5207C90.9599 10.7807 89.1579 7.41469 85.8599 7.41469C82.5619 7.41469 80.7939 10.4407 80.7939 14.7927C80.7939 19.1447 80.7939 21.7627 80.7939 21.7627Z" fill="#4B54E9"/>
<path d="M76.1808 21.7629H74.0728V6.05488H76.1808V21.7629ZM75.1268 3.23287C74.3788 3.23287 73.8008 2.62087 73.8008 1.87287C73.8008 1.15888 74.3788 0.546875 75.1268 0.546875C75.8748 0.546875 76.4868 1.15888 76.4868 1.87287C76.4868 2.62087 75.8748 3.23287 75.1268 3.23287Z" fill="#4B54E9"/>
<path d="M68.9412 0.0680012L72.4432 21.76H69.2812L67.6152 0.782L61.6652 21.76H59.5572L53.4712 0.782L51.9412 21.76H48.9492L52.4512 0.0680012L54.7292 0L60.6792 19.584L66.6972 0L68.9412 0.0680012Z" fill="#4B54E9"/>
<path d="M41.2286 6.35953C45.7166 6.35953 47.6546 10.5415 47.6546 14.4855C47.6546 17.4775 47.6546 21.7615 47.6546 21.7615H45.8526C45.8526 21.7615 45.8866 17.5795 45.8866 14.8255C45.8866 12.0715 45.0026 7.41353 41.1606 7.41353C37.2846 7.41353 36.4346 12.1055 36.4346 14.6555C36.4346 17.2055 36.4686 21.7615 36.4686 21.7615H34.6326C34.6326 21.7615 34.6326 17.5795 34.6326 14.8255C34.6326 14.4515 34.6326 14.0435 34.5646 13.6355C34.3606 10.9155 33.2726 7.41353 29.9066 7.41353C26.2686 7.41353 25.3506 11.5615 25.2486 14.1455C25.2146 14.3495 25.2146 14.4855 25.2146 14.6555C25.2146 17.2055 25.2486 21.7615 25.2486 21.7615H23.1406V6.01953H25.2486V8.67153C26.2686 7.34553 27.7986 6.35953 29.9746 6.35953C32.7966 6.35953 34.5986 7.95753 35.5506 10.1675C36.5366 8.16153 38.3046 6.35953 41.2286 6.35953Z" fill="#4B54E9"/>
<path d="M20.5636 21.7629H18.4556V6.05488H20.5636V21.7629ZM19.5096 3.23287C18.7616 3.23287 18.1836 2.62087 18.1836 1.87287C18.1836 1.15888 18.7616 0.546875 19.5096 0.546875C20.2576 0.546875 20.8696 1.15888 20.8696 1.87287C20.8696 2.62087 20.2576 3.23287 19.5096 3.23287Z" fill="#4B54E9"/>
<path d="M17.306 0.886312C15.81 0.886312 14.756 1.63431 13.736 2.65431L6.664 10.1003L17.306 21.7963H13.566L5.168 11.5963C3.196 13.5683 2.074 16.2883 2.074 19.0763V21.7623H0V0.0703125H2.074V13.2623L13.77 0.886312H12.478V0.0703125H17.306V0.886312Z" fill="#4B54E9"/>
</svg>
